<svg width="127" height="50" viewBox="0 0 127 50" fill="none" xmlns="http://www.w3.org/2000/svg">
<path d="M0.119995 39V5.73599H19.944L19.128 11.352H7.992V20.184H17.688V25.8H7.992V39H0.119995Z" fill="#2E2D2D"/>
<path d="M43.9031 25.752C43.9031 26.808 43.8551 27.72 43.7591 28.488H27.9671C28.2231 30.632 28.8311 32.136 29.7911 33C30.7511 33.864 32.0791 34.296 33.7751 34.296C34.7991 34.296 35.7911 34.12 36.7511 33.768C37.7111 33.384 38.7511 32.808 39.8711 32.04L42.9911 36.264C40.0151 38.632 36.7031 39.816 33.0551 39.816C28.9271 39.816 25.7591 38.6 23.5511 36.168C21.3431 33.736 20.2391 30.472 20.2391 26.376C20.2391 23.784 20.7031 21.464 21.6311 19.416C22.5591 17.336 23.9191 15.704 25.7111 14.52C27.5031 13.304 29.6471 12.696 32.1431 12.696C35.8231 12.696 38.7031 13.848 40.7831 16.152C42.8631 18.456 43.9031 21.656 43.9031 25.752ZM36.4631 23.592C36.3991 19.688 35.0231 17.736 32.3351 17.736C31.0231 17.736 29.9991 18.216 29.2631 19.176C28.5591 20.136 28.1271 21.72 27.9671 23.928H36.4631V23.592Z" fill="#2E2D2D"/>
<path d="M54.9315 39.816C52.7235 39.816 50.9955 39.192 49.7475 37.944C48.5315 36.664 47.9235 34.856 47.9235 32.52V3.38399L55.5075 2.56799V32.232C55.5075 33.288 55.9395 33.816 56.8035 33.816C57.2515 33.816 57.6675 33.736 58.0515 33.576L59.5395 38.952C58.1635 39.528 56.6275 39.816 54.9315 39.816Z" fill="#2E2D2D"/>
<path d="M69.9975 13.512V39H62.4135V13.512H69.9975ZM66.1575 0.071991C67.4695 0.071991 68.5415 0.487991 69.3735 1.31999C70.2375 2.11999 70.6695 3.14399 70.6695 4.39199C70.6695 5.63999 70.2375 6.67999 69.3735 7.51199C68.5415 8.31199 67.4695 8.71199 66.1575 8.71199C64.8455 8.71199 63.7735 8.31199 62.9415 7.51199C62.1095 6.67999 61.6935 5.63999 61.6935 4.39199C61.6935 3.14399 62.1095 2.11999 62.9415 1.31999C63.7735 0.487991 64.8455 0.071991 66.1575 0.071991Z" fill="#2E2D2D"/>
<path d="M90.3604 12.696C93.5604 12.696 95.9444 13.88 97.5124 16.248C99.0804 18.616 99.8644 21.928 99.8644 26.184C99.8644 28.808 99.4484 31.16 98.6164 33.24C97.8164 35.288 96.6484 36.904 95.1124 38.088C93.5764 39.24 91.7844 39.816 89.7364 39.816C87.1764 39.816 85.1124 38.936 83.5444 37.176V48.84L75.9604 49.656V13.512H82.6324L83.0164 16.344C84.0084 15.096 85.1444 14.184 86.4244 13.608C87.7044 13 89.0164 12.696 90.3604 12.696ZM87.4324 34.248C90.4724 34.248 91.9924 31.592 91.9924 26.28C91.9924 23.272 91.6564 21.192 90.9844 20.04C90.3124 18.856 89.3044 18.264 87.9604 18.264C87.0964 18.264 86.2804 18.52 85.5124 19.032C84.7764 19.544 84.1204 20.28 83.5444 21.24V31.992C84.5684 33.496 85.8644 34.248 87.4324 34.248Z" fill="#2E2D2D"/>
<path d="M126.825 25.752C126.825 26.808 126.777 27.72 126.681 28.488H110.889C111.145 30.632 111.753 32.136 112.713 33C113.673 33.864 115.001 34.296 116.697 34.296C117.721 34.296 118.713 34.12 119.673 33.768C120.633 33.384 121.673 32.808 122.793 32.04L125.913 36.264C122.937 38.632 119.625 39.816 115.977 39.816C111.849 39.816 108.681 38.6 106.473 36.168C104.265 33.736 103.161 30.472 103.161 26.376C103.161 23.784 103.625 21.464 104.553 19.416C105.481 17.336 106.841 15.704 108.633 14.52C110.425 13.304 112.569 12.696 115.065 12.696C118.745 12.696 121.625 13.848 123.705 16.152C125.785 18.456 126.825 21.656 126.825 25.752ZM119.385 23.592C119.321 19.688 117.945 17.736 115.257 17.736C113.945 17.736 112.921 18.216 112.185 19.176C111.481 20.136 111.049 21.72 110.889 23.928H119.385V23.592Z" fill="#2E2D2D"/>
</svg>
